PathFileType	4	(X/Y/Z)	c:/Users/goper/Files/vsCode/490R/osim_files/C12/C12_Fast_02.trc
DataRate	CameraRate	NumFrames	NumMarkers	Units                	OrigDataRate	OrigDataStartFrame	OrigNumFrames
120.00	120.00	10	36	mm	120.0	856	1140
                Frame#	Time	LPSIS			LASIS			LTH1			LTH2			LTH3			LTH4			LLFE			LMFE			LSH1			LSH2			LSH3			LSH4			LLMAL			LMMAL			LCAL			LMTP5			LTOE			LMTP1			RPSIS			RASIS			RTH1			RTH2			RTH3			RTH4			RLFE			RMFE			RSH1			RSH2			RSH3			RSH4			RLMAL			RMMAL			RCAL			RMTP1			RTOE			RMTP5		
		X1	Y1	Z1	X2	Y2	Z2	X3	Y3	Z3	X4	Y4	Z4	X5	Y5	Z5	X6	Y6	Z6	X7	Y7	Z7	X8	Y8	Z8	X9	Y9	Z9	X10	Y10	Z10	X11	Y11	Z11	X12	Y12	Z12	X13	Y13	Z13	X14	Y14	Z14	X15	Y15	Z15	X16	Y16	Z16	X17	Y17	Z17	X18	Y18	Z18	X19	Y19	Z19	X20	Y20	Z20	X21	Y21	Z21	X22	Y22	Z22	X23	Y23	Z23	X24	Y24	Z24	X25	Y25	Z25	X26	Y26	Z26	X27	Y27	Z27	X28	Y28	Z28	X29	Y29	Z29	X30	Y30	Z30	X31	Y31	Z31	X32	Y32	Z32	X33	Y33	Z33	X34	Y34	Z34	X35	Y35	Z35	X36	Y36	Z36

856	7.12500	-3757.43433	1039.95081	329.11520	-3943.68799	1013.30444	371.50867	0.00000	0.00000	0.00000	-3938.37720	680.33752	430.21744	-3982.38965	742.20526	436.08337	0.00000	0.00000	0.00000	-4053.61670	537.54279	394.48053	-4038.21899	523.39203	263.89578	-4090.87744	460.34183	407.46841	0.00000	0.00000	0.00000	-4039.59644	433.04263	414.65994	-4057.41772	394.78314	422.33887	-4226.55908	136.99756	390.27048	-4239.41602	149.74132	314.42841	0.00000	0.00000	0.00000	-4373.84131	148.38298	415.51758	-4399.09814	206.16357	349.05688	0.00000	0.00000	0.00000	0.00000	0.00000	0.00000	-3925.54761	1021.69318	117.52149	-3817.21558	740.18835	75.32616	-3801.46143	696.33771	83.34914	-3757.17627	755.75378	74.59481	0.00000	0.00000	0.00000	0.00000	0.00000	0.00000	-3714.38892	536.67261	256.89111	-3619.20923	459.25443	107.21799	-3609.77881	417.26321	101.32082	-3677.65918	436.90298	114.97082	-3658.16626	400.16354	108.28710	-3540.63574	134.80423	153.68683	-3558.01904	142.20956	236.67400	-3460.28882	108.50575	191.82646	-3664.64502	56.94404	235.33955	-3714.22314	70.37196	200.45998	-3673.90771	49.47175	126.26816
857	7.13333	-3770.34595	1037.47571	331.04196	-3956.62305	1010.10950	372.34283	0.00000	0.00000	0.00000	-3952.02979	678.44476	430.55560	-3996.04150	740.46185	436.74603	0.00000	0.00000	0.00000	-4067.37085	535.74860	394.02368	0.00000	0.00000	0.00000	-4104.56104	458.05606	407.28607	-4115.73975	414.22382	417.64462	-4052.67212	430.31601	414.22693	-4072.18237	391.83215	422.32819	-4243.95312	136.22800	388.32095	-4256.59766	150.01390	312.23090	0.00000	0.00000	0.00000	-4392.50000	150.93027	415.47757	-4414.68115	208.76822	347.17035	0.00000	0.00000	0.00000	0.00000	0.00000	0.00000	-3937.88647	1019.30707	118.35337	-3827.97095	738.33826	76.04193	-3811.97876	694.52490	83.95390	-3767.93457	754.05109	75.56610	0.00000	0.00000	0.00000	0.00000	0.00000	0.00000	-3724.37744	535.03723	257.14447	-3627.38013	459.70694	107.41058	-3617.19507	417.90106	101.51868	-3685.37671	436.14600	115.32372	-3665.30078	399.41248	107.70874	-3541.67139	135.65236	154.25426	-3558.87793	144.10008	236.35132	-3461.57300	111.42712	191.67064	-3664.97632	56.95140	235.31848	-3714.80493	70.08159	200.37952	-3674.08618	49.30970	126.15578
858	7.14167	-3783.20996	1035.13586	332.99219	-3969.57275	1007.10297	373.27359	0.00000	0.00000	0.00000	-3968.39429	676.91180	431.60083	-4010.69312	739.76190	437.47882	0.00000	0.00000	0.00000	-4081.80664	534.65784	393.42017	-4063.09131	520.46558	263.36499	-4118.34814	455.64679	406.36609	0.00000	0.00000	0.00000	-4066.71484	427.85510	413.76596	-4085.84741	389.59882	421.41211	-4258.46338	134.30188	386.16312	-4268.99023	147.90871	308.39056	0.00000	0.00000	0.00000	-4405.99512	150.51926	411.37390	-4428.19922	209.48930	345.25427	0.00000	0.00000	0.00000	0.00000	0.00000	0.00000	-3950.26416	1016.90515	119.19078	-3839.05444	736.41980	76.80368	-3822.80835	692.65851	84.56403	-3779.04175	752.38257	76.49211	0.00000	0.00000	0.00000	0.00000	0.00000	0.00000	-3735.02808	533.25842	257.50143	-3635.94727	460.00909	107.68383	-3625.01953	418.44125	101.78130	-3693.36548	435.24908	115.61606	-3672.69897	399.04214	107.90786	-3543.84692	137.53012	153.78566	-3560.70020	145.95505	236.04332	-3463.14258	114.57711	191.35497	-3666.84546	54.48648	233.23030	-3715.38989	69.81878	200.26137	-3674.38477	49.10411	126.01420
859	7.15000	-3796.71240	1032.83386	335.00098	-3982.67847	1004.55701	374.27222	0.00000	0.00000	0.00000	-3984.73193	676.09796	432.21744	-4026.02271	739.67047	438.24252	0.00000	0.00000	0.00000	-4095.35864	533.21930	390.70404	0.00000	0.00000	0.00000	-4132.63623	453.63211	405.63034	0.00000	0.00000	0.00000	-4081.05371	426.19638	412.67026	-4100.16553	387.53387	420.28021	-4270.30518	131.28786	384.07547	-4280.60938	144.74271	306.27994	0.00000	0.00000	0.00000	-4416.91943	147.53122	408.87820	-4438.77148	207.52473	343.97797	0.00000	0.00000	0.00000	0.00000	0.00000	0.00000	-3962.94043	1014.72815	120.13144	-3850.39233	734.57294	77.58446	-3834.07593	690.84473	85.22875	-3790.50854	750.72791	77.29869	0.00000	0.00000	0.00000	0.00000	0.00000	0.00000	-3746.14136	531.57666	257.72705	-3645.03418	460.39008	107.95369	-3632.92065	419.02069	101.95080	-3701.91455	434.45905	115.84520	-3680.54956	398.78015	108.12364	-3546.42432	139.73146	153.12425	-3563.06055	148.04349	235.62866	-3464.81177	118.39457	190.71269	-3667.41724	54.69702	233.12164	-3715.91382	69.60397	200.12935	-3674.62476	48.88575	125.84444
860	7.15833	-3809.70776	1031.08508	336.71445	-3995.93628	1002.44830	375.30981	0.00000	0.00000	0.00000	-4001.67798	675.74023	433.21426	-4041.77539	739.96368	438.88132	0.00000	0.00000	0.00000	-4111.23438	532.86078	389.65942	-4091.42993	519.19299	263.05096	-4147.11377	451.73169	404.42545	0.00000	0.00000	0.00000	-4095.47266	424.99667	411.56073	-4114.00732	386.10614	419.05264	-4279.64795	127.55361	382.22073	-4291.57910	140.85789	305.94043	0.00000	0.00000	0.00000	-4425.72998	143.15030	407.02679	-4448.16504	202.34813	341.61145	0.00000	0.00000	0.00000	0.00000	0.00000	0.00000	-3975.79590	1012.62158	121.08153	-3862.22534	732.89948	78.42102	-3845.84399	689.23663	85.90130	-3802.19849	749.24304	78.30920	0.00000	0.00000	0.00000	0.00000	0.00000	0.00000	-3757.65112	529.77722	257.92831	-3654.63135	461.01251	108.08167	-3641.68652	419.93869	102.09504	-3710.88477	433.74179	115.94260	-3688.55981	398.55786	108.10173	-3549.33228	142.27773	152.32471	-3565.46094	150.55519	235.02319	-3467.00488	122.63649	190.14580	-3668.02515	54.95990	232.87643	-3716.49219	69.41425	199.96431	-3674.94434	48.71698	125.62697
861	7.16667	-3823.02954	1029.45361	338.43759	-4009.48608	1000.86285	376.45129	0.00000	0.00000	0.00000	-4018.90479	675.56830	434.48688	-4057.97021	740.48901	439.42264	-4069.32324	699.57074	434.94247	-4127.44678	532.74902	388.61591	-4106.57178	518.99298	262.78922	-4167.13965	447.75412	403.98062	0.00000	0.00000	0.00000	-4110.00439	424.11850	410.66855	-4127.50928	384.71686	418.01926	-4286.55518	122.64941	380.48685	-4298.55664	135.16714	303.91934	0.00000	0.00000	0.00000	-4432.38379	136.66284	405.11813	-4455.94238	194.66664	339.12930	0.00000	0.00000	0.00000	0.00000	0.00000	0.00000	-3988.95728	1010.66492	122.11165	-3874.34277	731.24225	79.26437	-3857.83496	687.58240	86.59586	-3814.39136	747.64758	79.00355	0.00000	0.00000	0.00000	0.00000	0.00000	0.00000	-3769.50317	528.00116	257.99066	-3664.87378	461.74609	108.16148	-3650.82983	420.92026	102.09870	-3720.28467	433.10080	116.07816	-3697.16211	398.44513	108.14032	-3552.51831	145.10130	151.18542	-3568.39014	153.28801	234.33563	-3469.38135	127.45332	189.38751	-3668.68237	55.29939	232.58614	-3716.88501	69.24052	199.77563	-3675.30566	48.45488	125.42409
862	7.17500	-3836.30615	1028.20679	339.85550	-4023.27466	999.58698	377.70309	0.00000	0.00000	0.00000	-4036.26440	675.42352	435.57285	-4074.51904	740.98889	439.86954	-4085.84888	699.80566	434.73230	-4145.41748	533.55347	389.26520	-4122.20654	519.04010	262.34067	-4181.70117	445.28043	402.64932	0.00000	0.00000	0.00000	0.00000	0.00000	0.00000	-4140.53613	383.40573	417.12103	-4291.80127	117.73707	378.74628	-4301.74414	128.27217	300.52670	0.00000	0.00000	0.00000	-4437.92676	129.17039	403.70029	-4461.92822	185.35281	336.75861	0.00000	0.00000	0.00000	0.00000	0.00000	0.00000	-4002.34961	1008.88483	123.22127	-3886.88330	729.69385	80.14776	-3870.43188	686.10132	87.30384	-3827.10498	746.33557	80.02789	0.00000	0.00000	0.00000	0.00000	0.00000	0.00000	-3781.84595	526.22247	257.98499	-3675.74023	462.41098	108.08919	-3659.73584	422.57407	102.78069	-3730.20239	432.53189	116.03429	-3706.31396	398.48898	108.02280	-3555.84277	148.66077	149.57346	-3571.47925	156.36391	233.57268	-3472.90576	132.61072	188.91290	-3669.23804	55.43761	232.32559	-3717.16260	69.05614	199.67305	-3675.65869	48.20460	125.23106
863	7.18333	-3849.98755	1027.02637	341.15762	-4037.22754	998.58057	379.01346	0.00000	0.00000	0.00000	-4056.88989	676.07013	438.89743	-4091.25562	741.27069	440.17007	-4102.42188	700.02063	434.41602	-4161.42773	533.36859	388.04526	-4138.43604	519.41449	261.84201	-4196.19727	442.70953	401.21283	0.00000	0.00000	0.00000	0.00000	0.00000	0.00000	-4152.95996	381.93814	416.30368	-4296.12891	113.71235	377.31686	-4307.84814	123.84572	300.91461	0.00000	0.00000	0.00000	-4443.94385	120.63603	403.61505	-4469.59473	173.53181	333.31625	0.00000	0.00000	0.00000	0.00000	0.00000	0.00000	-4016.16479	1007.30145	124.46604	-3899.91235	728.34265	80.99330	-3883.28979	684.68390	88.05301	-3840.23145	745.01367	80.91579	0.00000	0.00000	0.00000	0.00000	0.00000	0.00000	-3794.44019	524.44836	258.11743	-3687.17944	463.24820	107.97659	-3669.81396	423.98364	102.78409	-3740.68457	432.01492	115.91483	-3715.84131	398.65451	107.77592	-3556.57617	153.45714	149.72362	-3575.25757	159.79124	232.77887	-3475.61304	138.59229	187.81348	-3669.85620	55.70702	231.90204	-3717.51660	68.94122	199.68365	-3676.07178	47.96700	125.05449
864	7.19167	-3864.18872	1025.91260	342.61725	-4051.18408	997.90631	380.48914	0.00000	0.00000	0.00000	-4070.29199	675.07117	436.44656	-4107.88232	741.40771	440.21332	-4118.87061	700.23260	433.97876	-4177.08740	533.01862	386.88290	-4166.85107	524.40216	261.80832	-4210.11768	440.23993	399.59970	0.00000	0.00000	0.00000	0.00000	0.00000	0.00000	-4164.74609	380.63052	415.29922	-4301.91846	110.94415	375.96478	-4313.33887	119.79799	300.24789	0.00000	0.00000	0.00000	-4449.16895	111.51871	398.93240	-4478.76904	163.26633	329.36560	0.00000	0.00000	0.00000	0.00000	0.00000	0.00000	-4030.21875	1005.86121	125.68346	-3913.20044	727.03760	81.89157	-3896.57422	683.42285	88.88707	-3853.57642	743.77350	82.09661	0.00000	0.00000	0.00000	0.00000	0.00000	0.00000	-3807.62207	522.76874	258.30856	-3699.18091	464.24094	107.76721	-3680.51025	425.51117	102.77483	0.00000	0.00000	0.00000	0.00000	0.00000	0.00000	-3560.65845	157.44562	148.57703	-3579.58496	163.63115	231.94379	-3479.48486	145.13501	186.89764	-3670.73389	56.12880	231.76949	-3718.12402	69.05753	199.86671	-3676.50000	47.79393	124.91764
865	7.20000	-3878.10840	1025.09766	343.93875	-4065.05420	997.53503	381.94568	-4073.44385	717.53833	447.36496	-4087.37280	673.60095	434.46527	-4124.19238	741.51318	440.02029	-4135.07910	700.47583	433.50482	-4191.88574	532.49213	386.01627	-4182.22803	524.00446	261.84537	-4224.63623	439.26773	399.78925	0.00000	0.00000	0.00000	0.00000	0.00000	0.00000	-4176.71240	379.34390	413.74863	-4310.14404	109.98380	375.26138	-4319.44287	116.88756	297.28363	0.00000	0.00000	0.00000	-4456.23584	103.65182	397.61493	-4488.78125	152.86649	328.57773	0.00000	0.00000	0.00000	0.00000	0.00000	0.00000	-4044.49219	1004.61230	126.98946	-3927.00684	725.94293	82.85987	-3910.23315	682.28894	89.77425	-3867.15552	742.75726	83.37979	0.00000	0.00000	0.00000	0.00000	0.00000	0.00000	-3821.35669	521.30963	258.63321	-3712.12402	465.38077	107.44569	-3691.66455	427.22430	102.79266	0.00000	0.00000	0.00000	0.00000	0.00000	0.00000	-3565.15088	161.80006	147.45193	-3584.22803	167.79491	230.83069	-3484.07666	152.33922	185.86868	-3672.40015	57.41215	231.25533	-3719.71411	69.39655	201.64871	-3676.95020	47.58532	124.76138
